<svg id="Layer_1" data-name="Layer 1" xmlns="http://www.w3.org/2000/svg" viewBox="0 0 360 360"><path d="M269.52,283.12c-4,3.93-10.58,2.16-15.78.13q-40.2-15.66-80.32-31.55c-1.52-.6-3.2.12-4.67.83l-46.43,22.35c-3.54,1.71-7.09,3.41-10.55,5.29s-6.86,3.91-10.71,4.17-8.21-2-8.77-5.85c-.72-4.95,4.7-8.33,9.29-10.32l45.19-19.57c2.9-1.26,6-2.71,7.48-5.51q-28-11-55.16-24c-3.73-1.78-7.67-3.8-9.66-7.42s-.78-9.23,3.23-10.21c2.35-.57,4.74.57,6.89,1.66A574.2,574.2,0,0,0,155.79,228l9.62,4.82c2.21,1.11,4.51,2.24,7,2.31a17.09,17.09,0,0,0,6.81-1.72l66.87-27.15a14.26,14.26,0,0,1,5.31-1.38,7.17,7.17,0,0,1,6,3.46c.8,2.84-.73,5.92-3,7.81s-5.14,2.86-7.93,3.81A526.93,526.93,0,0,0,191.71,242c1.85,2.65,5,4,8,5.17l40.47,16.07c6.8,2.7,13.67,5.42,20.89,6.6,2.65.43,5.46.71,7.62,2.31a7.59,7.59,0,0,1,.8,11M237.3,222.93c.12,0,.24-.2.11-.2a.74.74,0,0,1-.33.3c0,.13.25,0,.21-.09m8.1-16.47a.37.37,0,0,0,.64-.16.29.29,0,0,0-.48.12M144.19,223.78a.48.48,0,0,0-.26-.67.41.41,0,0,0,.23.61M242,208a.27.27,0,0,0,0,.43l.35-.32L242,208m-86.75,50.58-.34.31a.24.24,0,1,0,.33-.31m-39-47.1c.11,0,.08-.2,0-.23a.39.39,0,0,0-.3.1.29.29,0,0,0,.33.12m-25.47-8.68c.11,0,.08-.2,0-.23a.39.39,0,0,0-.3.1.29.29,0,0,0,.33.12m61.84,42.89a.29.29,0,0,0,.1.33c.07-.08.15-.18.12-.29s-.21-.15-.23,0m-45-38c.1,0,.11-.18,0-.19s-.1.18,0,.19m3,1c-.09,0-.11.17,0,.18s.1-.18,0-.18M91,213.31c-.09,0-.1.18,0,.19s.1-.18,0-.19m137.23,12.93h.21c0-.1-.16-.16-.19-.06m-91.32,9.35c-.09,0-.1.18,0,.19s.1-.18,0-.19m62.92,2.55c-.09,0-.1.17,0,.18s.1-.18,0-.18m-7.44,5.35c.09,0,.1-.17,0-.18s-.1.18,0,.18m-39.17,2.05c0-.1-.17-.11-.18,0s.18.1.18,0m27.56,8.87c.09,0,.1-.17,0-.18s-.1.18,0,.18m8,3.39c.09,0,.1-.18,0-.19s-.1.18,0,.19Z"/><path d="M183.92,131.12a9.2,9.2,0,0,1,1.18-3.29c2.4-3.63,8-2.81,11.86-.93a40.6,40.6,0,0,1,20.75,23.71c4.7,14.38.95,30-3.25,44.57-1.39,4.81-2.89,9.72-5.88,13.74-3.65,4.88-9.14,8-14.46,10.91a41.59,41.59,0,0,1-6.67,3.18c-8.23,2.77-17.19.12-25.46-2.53l-7.15-2.29-11.06-6.74c-3.12-1.9-6.29-3.85-8.69-6.61-3-3.44-4.57-7.88-6-12.24a69.76,69.76,0,0,1-3.07-12.7,61.43,61.43,0,0,1,.4-15.38,132.83,132.83,0,0,1,32.89-71.41,61.34,61.34,0,0,1,11.43-10.29,79.76,79.76,0,0,1,13.45-6.66,15.11,15.11,0,0,1,6.33-1.62c2.2.1,4.51,1.46,5,3.61s-.89,4-2.09,5.75a97,97,0,0,0-17.14,53.94c-.06,5.87.48,11.94,3.25,17.11.84,1.57,2.75,3.21,4.15,2.11a64.2,64.2,0,0,1,.23-25.94m5,78.21c4.55-1.47,8.06-5.24,10.26-9.47s3.27-9,4.31-13.62l2.17-9.7c.3-1.34.6-2.67.85-4a53.73,53.73,0,0,0,.33-17.44,27.75,27.75,0,0,0-11.64-16.77,5.41,5.41,0,0,0-3.54-1.18c-1.26.17-2.4,1.55-1.86,2.7a37.56,37.56,0,0,1-4.64,38.42c-1.86.1-3.19-1.69-4.16-3.28-5.5-9-11.12-18.34-12.53-28.79a61,61,0,0,1-.33-10.2,145,145,0,0,1,7.52-41.16,2,2,0,0,0-1.83-2.54,3.81,3.81,0,0,0-2.44,1.35,111,111,0,0,0-31.69,56.24,86.13,86.13,0,0,0-3,32.22c.45,4.56,1.32,9.23,3.81,13.08s6.9,6.75,11.46,6.27l5.52,1.7c2.24.69,4.83,1.73,5.37,4,.48,2,2.81,2.94,4.84,3.42A54.81,54.81,0,0,0,180.61,212l8.35-2.71m-38-89.47c-.32-.11-.53.32-.58.65,0,.16,0,.36.11.43a3,3,0,0,0,.47-1.08m23-28a.5.5,0,0,0-.67.3.44.44,0,0,0,.61-.27m9,57.74a.28.28,0,0,0,.11.33.56.56,0,0,0,0-.67.29.29,0,0,0-.11.33m10.49,57.07-.23.23c.12.12.36.14.44,0s-.14-.36-.25-.24m1.14-124.6a.28.28,0,0,0,.11.33.56.56,0,0,0,0-.67.28.28,0,0,0-.11.33m-26.14,56.52a.26.26,0,0,0,0-.43.27.27,0,0,0,0,.43m38.19,13.44-.11-.3c-.21,0-.11.44.09.37m-22.76-21.27c0,.11.21.07.24,0a.4.4,0,0,0-.12-.3.28.28,0,0,0-.1.33m-3.3-21.65c0,.11.21.08.24,0a.36.36,0,0,0-.12-.29.27.27,0,0,0-.1.32m11.46-23.06a.28.28,0,0,0,0-.44.27.27,0,0,0,0,.44m-64.83,99.16c0-.11-.21-.07-.23,0a.36.36,0,0,0,.11.3.28.28,0,0,0,.11-.33m76.52,2.39c0-.1-.22,0-.2.06h.21m-67-3.43c-.09,0-.1.18,0,.19s.09-.19,0-.19m6,13.87c0-.09-.18-.1-.18,0s.18.09.18,0m23.09,12.16c-.09,0-.1.18,0,.18s.09-.18,0-.18m.67.22c-.1,0-.1.18,0,.18s.1-.18,0-.18m-40.23-38.52c.09,0,.1-.18,0-.18s-.09.18,0,.18m55.09,40.23c.09,0,.1-.18,0-.18s-.09.18,0,.18M220,163.22c0,.09.18.1.19,0s-.19-.09-.19,0m-12.46,0c0,.09.18.1.18,0s-.18-.09-.18,0m.31-4.51c.09,0,.09-.17,0-.18s-.09.18,0,.19m-27.55-1.5c-.09,0-.1.18,0,.18s.09-.18,0-.18m-2-4.38c-.09,0-.09.18,0,.19s.09-.18,0-.19M190.09,141c.09,0,.09-.18,0-.18s-.09.18,0,.18m-11.47,82.78c0,.09.18.09.19,0s-.18-.09-.19,0m-46.47-84.06a.1.1,0,0,0,0,.19c.09,0,.09-.18,0-.19m36.3-.43c-.09,0-.09.18,0,.18s.09-.18,0-.18m-34.54-4.16c-.1,0-.1.18,0,.19a.1.1,0,0,0,0-.19m.44-1.78c.09,0,.1-.18,0-.19s-.09.19,0,.19m41.76-1.28c-.1,0-.1.18,0,.19s.1-.19,0-.19m9.18-4.18c.1,0,.1-.18,0-.19s-.09.18,0,.19m-14.44-12.47c.1,0,.1-.18,0-.18s-.09.18,0,.18m-20.33-11.12c-.1,0-.1.18,0,.19s.09-.18,0-.19m23.29-2.47H174c0-.1-.17-.16-.2-.06m.1-.74c-.09,0-.1.18,0,.19s.09-.18,0-.19m-6.33-3.93c-.09,0-.1.18,0,.18s.09-.18,0-.18M178.5,79.35c.09,0,.09-.17,0-.18s-.09.18,0,.19Z"/></svg>