<?xml version="1.0" encoding="UTF-8"?>
<svg width="100px" height="34px" viewBox="0 0 100 34" version="1.1" xmlns="http://www.w3.org/2000/svg" xmlns:xlink="http://www.w3.org/1999/xlink">
    <!-- Generator: Sketch 60.1 (88133) - https://sketch.com -->
    <title>reign-logo copy 3</title>
    <desc>Created with Sketch.</desc>
    <defs>
        <polygon id="path-1" points="3.30710957e-06 0.014308026 99.9894006 0.014308026 99.9894006 33.9999944 3.30710957e-06 33.9999944"></polygon>
    </defs>
    <g id="Concepting" stroke="none" stroke-width="1" fill="none" fill-rule="evenodd">
        <g id="reign-logo-copy-3">
            <path d="M36.5763889,5.27162256 C36.5537281,5.25978525 36.5294225,5.24975488 36.5049708,5.24226898 C35.5384137,4.9476269 34.705519,5.96124729 33.9457968,6.6524577 C33.144481,7.38161388 32.1039839,7.83862256 31.0290936,7.93361605 C29.984174,8.02595445 28.9412281,7.78636876 27.8941155,7.7240846 C26.8471126,7.66180043 25.7072368,7.81509544 24.9462354,8.54340347 C24.1729898,9.2834013 23.9707237,10.4308829 23.8326023,11.4970889 C23.2940058,15.6560043 23.0997807,19.8603145 23.2527778,24.051718 C23.2989766,25.3170933 23.4543494,26.7402993 24.4377193,27.5270933 C25.0982456,28.0554946 25.9856725,28.1661974 26.8237939,28.2573557 C28.6172149,28.4522842 30.4106725,28.6471757 32.2040936,28.8421041 C32.9271564,28.9207245 33.6716374,28.9976855 34.3711257,28.7967831 C35.659576,28.4267289 36.5705409,27.0314382 36.4088085,25.6918308 C36.4045322,25.6570195 36.3958333,25.6223189 36.3828216,25.5898308 C35.8718202,24.3167852 34.1075658,24.14118 32.7721857,24.4746898 C31.4196637,24.8124035 29.9960161,25.440039 28.6938962,24.9398482 C27.1123173,24.3323102 26.5302266,22.2113297 27.1088085,20.6067657 C27.5449561,19.3970738 28.5125365,18.393705 29.6990132,17.9206182 C30.2302266,17.7088373 30.7992325,17.5990933 31.318019,17.3581063 C32.0906433,16.9991518 32.718019,16.3412777 33.0616959,15.5575076 C33.1374269,15.3848156 33.1477705,15.189961 33.1004386,15.0073124 L33.0989766,15.001744 C33.0515351,14.8187267 32.9472588,14.6537787 32.7967105,14.5410108 C31.7288743,13.7408308 30.1728801,13.6272148 29.0035088,14.2673514 C28.0141082,14.8089913 26.8269737,14.0130521 26.9949196,12.8900564 C26.9968933,12.8770759 26.998867,12.8640954 27.0009503,12.8511518 C27.133443,12.0201432 27.5563962,11.1479067 28.3407164,10.8610456 C28.6900585,10.733269 29.0713085,10.7367354 29.4428728,10.7416399 C30.2005848,10.7517809 30.9582602,10.7619219 31.7159722,10.772026 C31.9360015,10.7749393 32.1548611,10.7397223 32.3630848,10.6678872 C32.8832237,10.4884469 33.4032895,10.3090434 33.9233918,10.1295662 C35.0440789,9.74295445 36.2318348,9.30895662 36.9491959,8.35809978 C37.6586257,7.41756833 37.6100146,5.8085423 36.5763889,5.27162256" id="Fill-1" fill="#FFFFFF"></path>
            <g id="Group-8">
                <mask id="mask-2" fill="white">
                    <use xlink:href="#path-1"></use>
                </mask>
                <g id="Clip-3"></g>
                <path d="M45.8654971,8.98798482 C45.2986111,7.78732755 43.6092836,7.72718221 42.9163012,8.8582538 C42.1915205,10.0410998 42.0650585,11.6469544 41.9806287,13.0936508 C41.7046784,17.8310824 41.0402047,22.5454664 39.996345,27.1728221 C39.7598684,28.2203688 39.5025585,29.2895618 39.622076,30.3570586 C39.7397661,31.4074447 40.3051901,32.4756421 41.2671784,32.8844534 C42.3972953,33.3648785 43.6659357,32.5804816 43.806652,31.3512082 C44.1154971,28.6540347 44.4243421,25.9567874 44.7328216,23.259577 C45.1717836,19.4258004 45.6103801,15.5920607 46.0493421,11.7582842 C46.1516813,10.8638482 46.248538,9.9245705 45.9104532,9.09123861 C45.8965643,9.05650108 45.8815789,9.02205857 45.8654971,8.98798482" id="Fill-2" fill="#FFFFFF" mask="url(#mask-2)"></path>
                <path d="M95.3680556,22.4869805 C95.7986111,19.8511323 96.2291667,17.2151735 96.6597222,14.5793254 C96.8541667,13.3900998 97.0438596,12.1410976 96.6487573,11.0036833 C96.3040936,10.0118568 95.4477339,9.16126681 94.4137427,9.03821041 C93.2649854,8.90154664 92.2415936,9.7941757 92.1538743,10.957551 C91.8205409,15.3758178 91.1494883,19.7681605 90.1487573,24.0825466 C89.9747807,25.1286551 89.8026316,25.2978807 89.561769,24.9746594 C89.0098684,23.6626356 88.3099415,21.8515271 87.7580409,20.5395033 C87.1421784,18.1670629 86.5263158,15.7945488 85.9104532,13.4221085 C85.7397661,12.7649718 85.566886,12.1012343 85.252924,11.5002234 C85.066155,11.1425597 84.8326023,10.8127007 84.6034357,10.4801866 C84.1312135,9.79509761 83.2540205,9.51476356 82.4853801,9.82205423 C81.1714181,10.3473579 80.0734649,11.6104469 79.2288012,12.8323449 C77.7518275,14.9683709 76.4744152,17.2446746 75.4192251,19.621282 C75.1399854,20.409846 74.8611111,21.19841 74.5822368,21.9870108 C74.2503655,22.9254772 73.9152047,23.8775141 73.8380848,24.8708894 C73.7002924,26.6403644 74.3837719,28.4644534 74.0935673,30.1793883 C74.0131579,30.6553145 74.1699561,31.1403492 74.5310673,31.457154 L74.5628655,31.4849588 C75.3128655,32.140731 76.4762427,32.2622386 77.3435673,31.775397 C78.2108918,31.2885922 78.7218567,30.2270694 78.5650585,29.2382668 C77.9915936,25.6214338 78.8249269,21.7965076 80.8486842,18.7557939 C81.0577485,18.4423449 81.3026316,18.1157679 81.7989766,18.2072581 C82.2214912,18.285141 82.560307,18.6069241 82.7010234,19.016436 C83.6480263,21.7718742 84.5953947,24.5272755 85.5423977,27.2826768 C85.7967836,28.0224902 86.0529971,28.770859 86.1282895,29.550167 C86.2598684,30.9128959 85.8888889,32.4889176 86.9528509,33.4509111 C87.4546784,33.9045271 88.1451023,34.06918 88.8121345,33.974039 C90.0913743,33.7916855 91.0277778,32.8824989 91.8084795,31.920026 C93.7737573,29.4978395 94.9528509,27.2461323 95.3567251,24.1425076 C95.4294591,24.1175054 95.495614,23.9448134 95.5069444,23.2715987 C95.5116959,22.9981605 95.3241959,22.7568785 95.3680556,22.4869805" id="Fill-4" fill="#FFFFFF" mask="url(#mask-2)"></path>
                <path d="M57.622807,8.83096529 C57.9521199,7.5969718 58.2938596,6.3349154 59.0201023,5.28788503 C59.746345,4.24081779 60.9462719,3.43411063 62.2083333,3.53968764 C64.1531433,3.70231236 65.2986111,5.77870933 65.9751462,7.62558785 C66.5069444,9.07781562 66.9674708,10.5565575 67.3548977,12.0546963 C67.5526316,12.8204338 67.7386696,13.6082603 68.1684942,14.2703753 C68.5979532,14.9324534 69.3340643,15.4547701 70.1158626,15.388577 C71.1505848,15.3009219 71.869152,14.2053991 71.9181287,13.1585531 C71.9667398,12.1117809 71.5211988,11.113538 71.0855263,10.1622755 C70.3282164,8.50958785 69.5709064,6.85690022 68.8135965,5.2041757 C67.8724415,3.1498308 66.6454678,0.862537961 64.6114766,0.123830803 C64.2415936,-0.0105835141 63.8380848,-0.0182537961 63.4583333,0.0842255965 C61.0983187,0.720859002 58.4967105,0.901221258 56.6849415,2.52901735 C55.1472953,3.91073753 54.5394737,6.035 54.0018275,8.04066811 C53.1425439,11.2486161 52.2763158,14.5128742 52.3702485,17.8345488 C52.3951023,18.7071909 52.4864766,19.5764035 52.5774854,20.4446204 C52.7328216,21.9272343 52.8885234,23.4098482 53.0442251,24.8924252 C53.1842105,26.2269805 53.3483187,27.6279132 54.121345,28.7199696 C54.941886,29.8789197 56.3483187,30.5069241 57.750731,30.6706182 C59.2046784,30.8403601 60.6725146,30.5681388 62.1027047,30.2639826 C64.005848,29.8591909 65.8903509,29.3706898 67.7510965,28.79918 C68.8669591,28.4563406 70.0171784,28.0515857 70.8252924,27.204167 C71.7708333,26.2125618 72.0910088,24.6616529 71.6180556,23.3713124 C71.4846491,23.0077115 71.244152,22.6939675 70.9462719,22.4493297 C67.6871345,19.7748351 64.4283626,17.1003406 61.1692251,14.4258829 C60.4137427,13.8059544 59.2839912,13.9305228 58.7119883,14.7256139 C58.2185673,15.4114772 58.1743421,16.3375531 58.3296784,17.172102 C58.7836257,19.6115835 60.9137427,21.626987 63.3450292,21.961308 C63.4967105,21.9821432 63.6151316,22.1043145 63.6352339,22.257462 C63.6535088,22.3944946 63.7503655,22.5075944 63.8823099,22.5448395 C64.6180556,22.7524534 65.3625731,23.0124317 65.8326023,23.6409154 C66.0986842,23.9967722 66.2130848,24.4546291 66.1103801,24.8881475 C65.9550439,25.5449892 65.4258041,25.7178655 64.9276316,25.8724881 C63.432383,26.336872 61.9082602,26.8057549 60.3435673,26.7944707 C59.6703216,26.789603 58.9557749,26.6766508 58.4470029,26.231885 C57.9126462,25.764846 57.7090643,25.0291258 57.5471491,24.3347809 C56.5519006,20.0675965 56.1323099,15.5917657 57.0153509,11.2995054 C57.186038,10.4692343 57.4046053,9.64980477 57.622807,8.83096529" id="Fill-5" fill="#FFFFFF" mask="url(#mask-2)"></path>
                <path d="M6.12989766,13.2074512 C5.22489035,12.9020043 4.74261696,11.909551 5.06761696,11.0042733 C5.65047515,9.38082863 6.26385234,7.70660521 7.44660088,6.45856182 C7.51151316,6.39011931 7.58037281,6.32204555 7.6558114,6.26573536 C7.83622076,6.01475488 8.22101608,5.71601952 8.56151316,5.77841432 C8.60186404,5.78578959 9.18925439,5.69429935 9.22602339,5.70820174 L9.23347953,5.69407809 C9.87920322,5.62806941 9.86542398,5.89099783 10.5038012,6.00907592 C11.7399854,6.23763557 13.1320906,7.39573753 13.5990497,8.57297831 C13.6647295,8.73866377 13.7304825,8.90434924 13.7961623,9.06999783 C13.9226974,9.38886768 14.0230629,9.79889588 13.9031798,10.0867158 C13.7980629,10.3392082 13.7203947,10.6031323 13.7220395,10.877013 C13.7251096,11.3850586 13.6705775,11.8910022 13.4158991,12.3205748 C12.9621711,13.085833 12.0158991,13.3779675 11.1440424,13.524551 C10.1843202,13.6859219 9.20489766,13.7471735 8.23611111,13.6558677 C7.52010234,13.5884208 6.81187865,13.4375965 6.12989766,13.2074512 Z M15.7236477,24.4014165 C15.3451023,24.3277375 15.0130848,24.1156616 14.7649854,23.817885 C14.6184576,23.6420217 14.4188962,23.4949957 14.2315058,23.3613557 C12.4479532,22.089564 10.8503655,20.5527419 9.50621345,18.8159024 C9.18479532,18.400564 8.86476608,17.9372495 8.85248538,17.4102863 C8.83877924,16.8177939 9.37993421,16.3541475 9.96074561,16.4426508 C12.4079313,16.815692 15.1133772,15.7017679 16.276462,13.4992907 C16.704057,12.6896334 16.915095,11.7834338 17.090424,10.8832082 C17.3394006,9.60426247 17.5123538,8.21889154 16.9478801,7.04651844 C16.6641447,6.45730803 16.2117325,5.96677874 15.7214181,5.53739046 C14.264364,4.26150542 12.4072368,3.45782213 10.4866594,3.27207592 C7.97346491,3.02898698 5.24305556,3.96966594 3.83044591,6.08094794 C3.4065424,6.71459436 3.1129386,7.42656616 2.84115497,8.14016052 C0.114802632,15.2978243 -0.674195906,23.1958547 0.581542398,30.7584946 C0.636147661,31.0874685 0.696162281,31.4208308 0.841776316,31.7203037 C1.28490497,32.6320347 2.57576754,32.9887766 3.41758041,32.4322017 C3.80438596,31.2630369 3.60420322,29.9912082 3.45365497,28.7679826 C3.0808114,25.73859 3.03896199,22.667859 3.32920322,19.6292473 C3.36842105,19.2186659 3.42182018,18.782898 3.96140351,18.5823275 C4.21856725,18.4867072 4.50442251,18.4844208 4.76465643,18.5712278 C5.30113304,18.7501518 5.68274854,19.1952495 6.04795322,19.6201757 C9.29656433,23.3994859 12.9334795,26.8388698 16.8815058,29.8652755 C17.6486111,30.4533427 18.4656798,31.0427375 19.4156433,31.2043666 C20.3656067,31.3660325 21.4809942,30.9622364 21.8296418,30.0561475 C22.1994518,29.0951866 21.5965643,28.0361714 20.8996711,27.2823449 C19.5330409,25.8040456 17.6900219,24.7842299 15.7236477,24.4014165 L15.7236477,24.4014165 Z" id="Fill-6" fill="#FFFFFF" mask="url(#mask-2)"></path>
                <path d="M98.8629386,32.5702668 C98.2905702,32.9342364 97.4959795,32.9268243 96.9736842,32.5530824 C96.4035088,32.1447137 96.0127924,31.7179436 95.9597953,30.9630108 C95.9272661,30.5046377 96.372076,30.0442733 96.8278509,29.7315249 C98.3377193,29.7869132 99.247076,30.2716529 99.5332602,31.1757505 C99.7171053,31.7561106 99.5292398,32.1470369 98.8629386,32.5702668 Z M99.9049708,31.0558286 C99.6027047,30.1009154 98.7613304,29.5392885 97.3987573,29.3798351 C97.433845,29.3255163 97.441155,29.2547505 97.4126462,29.1914338 C97.3680556,29.0921996 97.2525585,29.0481323 97.1542398,29.0935271 C97.0270468,29.151718 96.8753655,29.2332148 96.7171053,29.3344772 C96.5836988,29.3318959 96.4466374,29.3316746 96.3059211,29.3349566 C96.1980994,29.3375748 96.1129386,29.4277744 96.1151316,29.536449 C96.1169591,29.6120824 96.1608187,29.6769479 96.2236842,29.7084772 C95.8435673,30.0524967 95.5354532,30.4972256 95.5705409,30.9912213 C95.6385234,31.9534729 96.1765351,32.4648742 96.747807,32.8740174 C97.0829678,33.1141931 97.4967105,33.2346681 97.9159357,33.2346681 C98.316886,33.2346681 98.7229532,33.1244447 99.0709064,32.9034816 C99.6209795,32.5538568 100.212719,32.0281106 99.9049708,31.0558286 L99.9049708,31.0558286 Z" id="Fill-7" fill="#FFFFFF" mask="url(#mask-2)"></path>
            </g>
            <path d="M97.9177632,30.8599414 C97.7415936,30.8627072 97.5672515,30.8937939 97.3965643,30.9449414 L97.4206871,30.7689306 C97.4488304,30.7512668 97.4791667,30.7358894 97.5116959,30.7227983 C97.5204678,30.719295 97.5263158,30.7125098 97.5339912,30.707974 C97.5434942,30.7070152 97.5522661,30.7090065 97.561769,30.7066833 C97.690424,30.6741215 97.8508772,30.7469154 97.9181287,30.8599414 L97.9177632,30.8599414 Z M98.876462,31.7725206 L97.9744152,31.2528959 C98.0888158,31.2511258 98.2138158,31.2426811 98.2934942,31.1311302 C98.371345,31.0212017 98.3442982,30.8904382 98.3121345,30.7886594 C98.2054094,30.4536377 97.8106725,30.2357722 97.4656433,30.3252343 C97.4484649,30.3296226 97.434576,30.3391367 97.4195906,30.3475076 C97.4016813,30.3493145 97.3841374,30.3503102 97.3665936,30.3572798 C97.3293129,30.3723991 97.2942251,30.3888091 97.2609649,30.406731 C97.1637427,30.3993189 97.0785819,30.4633731 97.0562865,30.5569653 C96.5869883,31.0168503 96.7777778,31.8748156 96.8475877,32.1880434 C96.8676901,32.2782798 96.9470029,32.3418547 97.0376462,32.3418547 C97.0405702,32.3418547 97.0434942,32.3418547 97.0460526,32.3415965 C97.1407164,32.3374664 97.2185673,32.2659631 97.2313596,32.1716334 L97.3432018,31.3428373 L98.683114,32.1145119 C98.7134503,32.1321757 98.7467105,32.1403623 98.7796053,32.1403623 C98.8472222,32.1403623 98.9130117,32.1047397 98.9491959,32.0411649 C99.0025585,31.946577 98.9700292,31.8263601 98.876462,31.7725206 L98.876462,31.7725206 Z" id="Fill-9" fill="#FFFFFF"></path>
        </g>
    </g>
</svg>