<?xml version="1.0" encoding="UTF-8"?>
<svg width="175px" height="56px" viewBox="0 0 175 56" version="1.1" xmlns="http://www.w3.org/2000/svg" xmlns:xlink="http://www.w3.org/1999/xlink">
    <!-- Generator: Sketch 60.1 (88133) - https://sketch.com -->
    <title>fieldtest</title>
    <desc>Created with Sketch.</desc>
    <g id="fieldtest" stroke="none" stroke-width="1" fill="none" fill-rule="evenodd">
        <path d="M23.0460089,40.484639 C23.7866457,40.484639 24.695609,40.2489818 24.695609,39.3400185 C24.695609,38.7340429 24.0896335,38.3973898 23.5173232,38.0607367 C22.9469933,37.7438868 22.9134444,37.3375733 22.911471,36.3927245 L22.9113476,29.2067604 L27.8264828,29.2067604 C30.1157238,29.2067604 29.8464013,30.3850463 30.9910218,30.3850463 C32.1356423,30.3850463 32.1693076,28.9711033 32.1693076,27.5571603 C32.1693076,26.3452092 32.1356423,25.234254 30.9910218,25.234254 C29.8464013,25.234254 30.2167197,26.4798704 27.8264828,26.4798704 L22.9113476,26.4798704 L22.9113476,20.7904332 C22.9113476,18.5348575 23.1133395,18.2318697 26.3452092,18.2318697 C28.8701073,18.2318697 30.3177156,18.2992003 32.0683117,20.2854535 C32.4722954,20.7231025 32.8762791,21.1944169 33.5495853,21.1944169 C34.6268752,21.1944169 34.4585487,20.0161311 34.4248833,19.3091596 C34.3238874,18.4001962 34.2902221,16.6496001 33.4822547,16.1109552 C33.078271,15.8416327 32.4049648,15.8416327 31.2603443,15.8416327 L16.6496001,15.8416327 C15.9089633,15.8416327 15,16.0772899 15,16.9862532 C15,17.5922288 15.2019919,17.8952166 16.0099593,18.1308737 C16.7105183,18.3136283 16.7772382,18.7168486 16.7835925,19.7644064 L16.7842614,36.2091447 C16.7842614,37.3874305 16.7169308,37.9260755 15.8416327,38.2963939 C15.3703184,38.5320511 15,38.7340429 15,39.3400185 C15,40.2489818 15.9089633,40.484639 16.6496001,40.484639 L23.0460089,40.484639 Z M39.9796593,22.1033802 C41.4945983,22.1033802 43.3461903,21.1944169 43.3461903,19.4438208 C43.3461903,17.6258941 41.6965901,16.7505961 40.04699,16.7505961 C38.4310551,16.7505961 36.781455,17.7942207 36.781455,19.578482 C36.781455,21.2280822 38.4983857,22.1033802 39.9796593,22.1033802 Z M44.625472,39.4073491 C44.625472,38.8350388 44.3224842,38.5993817 43.7838393,38.3637245 C43.3247669,38.0270714 43.283033,37.6625958 43.279239,36.3597407 L43.2788596,27.3215031 C43.2788596,25.9412255 43.2451943,24.0223028 41.898582,24.0223028 C40.8549574,24.0223028 38.9360348,24.6619437 37.4884265,25.0659274 C36.3101407,25.4025805 35.8724916,25.671903 35.8724916,26.2778785 C35.8724916,26.8165235 36.3101407,26.98485 36.7141244,27.2205072 C37.656753,27.7591521 37.7914143,27.961144 37.7914143,30.9573565 L37.7914143,35.9398223 C37.7914143,37.5894224 37.7914143,37.9934061 37.2864346,38.3637245 C36.7477897,38.5993817 36.4448019,38.8350388 36.4448019,39.4073491 C36.4448019,40.4035362 37.2116615,40.4794918 37.925538,40.4843386 L43.0432025,40.484639 C43.7838393,40.484639 44.625472,40.4509737 44.625472,39.4073491 Z M55.0280525,40.9896186 C57.1153017,40.9896186 58.8658977,40.6193002 60.6164938,39.5756756 C61.5254572,39.070696 63.3433838,37.656753 63.3433838,36.4448019 C63.3433838,35.9398223 62.8384042,35.5358385 62.3670899,35.5358385 C61.6937837,35.5358385 61.4581265,35.8724916 60.9868122,36.2764753 C59.6401998,37.4884265 58.2599222,38.2963939 56.4419955,38.2963939 C54.2537504,38.2963939 52.5704849,36.8151203 52.0991706,34.6942058 C60.6164938,33.8189078 63.0067308,31.4286708 63.0067308,28.937438 C63.0067308,25.4025805 59.1015549,24.0223028 56.1053424,24.0223028 C50.8535542,24.0223028 45.9720844,27.3888337 45.9720844,33.0446057 C45.9720844,37.9934061 50.4495705,40.9896186 55.0280525,40.9896186 Z M51.7961828,32.4386301 C51.6278563,30.0820585 52.907138,26.3788745 55.735024,26.3788745 C57.0816364,26.3788745 57.7549425,27.2878378 57.7549425,28.5671196 C57.7549425,31.3613402 54.0180932,32.2703036 51.7961828,32.4386301 Z M73.7796297,39.4073491 C73.7796297,38.8350388 73.4766419,38.5993817 72.9379969,38.3637245 C72.1356404,38.024266 72.0687774,37.6565192 72.0632054,36.3269733 L72.0626989,18.2992003 C72.0626989,16.9189226 72.0290336,15 70.6824212,15 C69.6387966,15 67.719874,15.6396409 66.2722657,16.0436246 C65.0939799,16.3802777 64.6563309,16.6496001 64.6563309,17.2555757 C64.6563309,17.7942207 65.0939799,17.9625472 65.4979636,18.1982044 C66.4405923,18.7368493 66.5752535,18.9388412 66.5752535,21.9350537 L66.5752535,35.9398223 C66.5752535,37.5894224 66.5752535,37.9934061 65.6999555,38.3637245 C65.1613105,38.5993817 64.8583228,38.8350388 64.8583228,39.4073491 C64.8583228,40.4055987 65.628361,40.4798024 66.6675779,40.4843678 L71.8270417,40.484639 C72.9379969,40.484639 73.7796297,40.4509737 73.7796297,39.4073491 Z M82.6672713,40.9896186 C84.7208551,40.9896186 86.4714512,40.3163124 87.6160717,38.3973898 L87.6166459,38.6974968 C87.624398,39.988546 87.7368025,40.484639 89.3666678,40.484639 L92.8005293,40.484639 C93.5748314,40.484639 94.618456,40.4509737 94.618456,39.4073491 C94.618456,38.8350388 94.2481376,38.5993817 93.7768233,38.3637245 C93.0347837,38.008836 92.8801922,37.6230293 92.8685978,36.0803623 L92.8678599,18.2992003 C92.8678599,16.9189226 92.8341946,15 91.4875822,15 C90.4439577,15 88.525035,15.6396409 87.0774268,16.0436246 C85.8991409,16.3802777 85.4614919,16.6496001 85.4614919,17.2555757 C85.4614919,17.7942207 85.8991409,17.9625472 86.3031246,18.1982044 C87.2457533,18.7368493 87.3804145,18.9388412 87.3804145,21.9350537 L87.3804145,25.133258 C86.0674675,24.3926212 84.9565123,24.0223028 83.4415734,24.0223028 C78.4927729,24.0223028 74.8569196,27.8264828 74.8569196,32.7752832 C74.8569196,37.3200999 78.0887892,40.9896186 82.6672713,40.9896186 Z M84.2832061,38.2963939 C81.3206589,38.2963939 80.681018,34.8625324 80.681018,32.539626 C80.681018,30.1493891 81.4553201,26.4798704 84.4515326,26.4798704 C85.2931654,26.4798704 86.1347981,26.8501888 86.673443,27.4898297 C87.3130839,28.2304665 87.3804145,29.0720992 87.3804145,29.9810625 L87.3804145,34.492214 C87.3804145,35.367512 87.3467492,36.1081488 86.8754349,36.8824509 C86.3031246,37.7577489 85.3268307,38.2963939 84.2832061,38.2963939 Z M109.633184,40.484639 C110.373821,40.484639 111.282784,40.2489818 111.282784,39.3400185 C111.282784,38.7340429 110.912466,38.5320511 110.205494,38.1617327 C109.540109,37.8131977 109.500969,37.3155569 109.498667,36.3881403 L109.498523,20.1507923 C109.498523,18.7705146 109.532188,18.3328656 110.845135,18.3328656 C114.68298,18.3328656 114.918637,21.1270863 116.467242,21.1270863 C117.275209,21.1270863 117.578197,20.6221066 117.578197,19.8478045 C117.578197,19.4774861 117.477201,19.1071677 117.275209,17.9288819 C116.904891,15.8416327 116.568238,15.8416327 115.053299,15.8416327 L97.8166604,15.8416327 C96.3017214,15.8416327 95.9650684,15.8416327 95.59475,17.9288819 C95.3927581,19.1071677 95.2917622,19.4774861 95.2917622,19.8478045 C95.2917622,20.6221066 95.59475,21.1270863 96.4027174,21.1270863 C97.9513216,21.1270863 98.1869788,18.3328656 102.024824,18.3328656 C103.337771,18.3328656 103.371436,18.7705146 103.371436,20.1507923 L103.371436,36.2091447 C103.371436,37.3874305 103.304106,37.9260755 102.428808,38.2963939 C101.957493,38.5320511 101.587175,38.7340429 101.587175,39.3400185 C101.587175,40.2489818 102.496138,40.484639 103.236775,40.484639 L109.633184,40.484639 Z M120.918544,40.9896186 C123.005793,40.9896186 124.756389,40.6193002 126.506985,39.5756756 C127.415948,39.070696 129.233875,37.656753 129.233875,36.4448019 C129.233875,35.9398223 128.728895,35.5358385 128.257581,35.5358385 C127.584275,35.5358385 127.348618,35.8724916 126.877303,36.2764753 C125.530691,37.4884265 124.150413,38.2963939 122.332487,38.2963939 C120.144241,38.2963939 118.460976,36.8151203 117.989662,34.6942058 C126.506985,33.8189078 128.897222,31.4286708 128.897222,28.937438 C128.897222,25.4025805 124.992046,24.0223028 121.995833,24.0223028 C116.744045,24.0223028 111.862575,27.3888337 111.862575,33.0446057 C111.862575,37.9934061 116.340062,40.9896186 120.918544,40.9896186 Z M117.686674,32.4386301 C117.518347,30.0820585 118.797629,26.3788745 121.625515,26.3788745 C122.972127,26.3788745 123.645434,27.2878378 123.645434,28.5671196 C123.645434,31.3613402 119.908584,32.2703036 117.686674,32.4386301 Z M137.852194,40.9896186 C142.195019,40.9896186 145.763542,38.6667123 145.763542,35.1655201 C145.763542,29.1057645 136.808569,31.2603443 136.808569,28.1968012 C136.808569,26.8501888 138.222512,26.3115439 139.367133,26.3115439 C142.632668,26.3115439 142.498007,29.2067604 144.012946,29.2067604 C144.98924,29.2067604 145.022905,28.2977971 145.022905,27.5571603 C145.022905,26.8165235 145.022905,25.7392336 144.315933,25.3015846 C143.002986,24.4262865 140.545419,24.0223028 138.996815,24.0223028 C135.495622,24.0223028 131.287459,25.5709071 131.287459,29.7454054 C131.287459,35.805161 140.040439,33.1792669 140.040439,36.6131284 C140.040439,38.0607367 138.323508,38.5993817 137.178888,38.5993817 C135.495622,38.5993817 134.788651,37.8250796 133.711361,36.6467937 C133.240047,36.1081488 132.937059,35.6704998 132.162757,35.6704998 C131.354789,35.6704998 130.748814,36.4111366 130.748814,37.219104 C130.748814,38.5993817 132.263753,39.6093409 133.408373,40.1143206 C134.822316,40.7539615 136.269925,40.9896186 137.852194,40.9896186 Z M159.196,39.2053572 C159.196,37.9260755 158.11871,37.8924102 156.906759,37.8924102 C155.218684,37.8924102 155.001878,37.1098206 154.988545,35.6955693 L154.987836,26.9511847 L156.940424,26.9511847 C157.883053,26.9511847 158.960343,26.8165235 158.960343,25.6382377 C158.960343,24.3252906 157.883053,24.2916253 156.873094,24.2916253 L154.987836,24.2916253 L154.987836,20.2517882 C154.987836,18.8378452 154.752179,18.6358534 153.203575,18.6358534 C151.856963,18.6358534 151.58764,19.0735024 151.351983,20.3191188 C151.217322,21.1607516 150.847003,22.6756905 150.409354,23.382662 C149.870709,24.1906294 149.062742,24.2916253 148.153779,24.4262865 C147.413142,24.5609478 146.807166,24.7629396 146.807166,25.6382377 C146.807166,26.846149 147.69049,26.9427819 148.59205,26.9505125 L149.500391,26.9511847 L149.500391,37.8924102 C149.500391,40.1122803 150.165165,40.4644522 152.139342,40.4837575 L156.940424,40.484639 C157.815722,40.484639 159.196,40.4173084 159.196,39.2053572 Z" id="FieldTest" fill="#000000" fill-rule="nonzero"></path>
    </g>
</svg>