<?xml version="1.0" encoding="UTF-8"?>
<svg width="175px" height="56px" viewBox="0 0 175 56" version="1.1" xmlns="http://www.w3.org/2000/svg" xmlns:xlink="http://www.w3.org/1999/xlink">
    <!-- Generator: Sketch 60.1 (88133) - https://sketch.com -->
    <title>freespin</title>
    <desc>Created with Sketch.</desc>
    <g id="freespin" stroke="none" stroke-width="1" fill="none" fill-rule="evenodd">
        <path d="M18.3497528,35.6399551 L18.3497528,29.8531236 L27.4915955,29.8531236 L27.4915955,25.935191 L18.3497528,25.935191 L18.3497528,23.4808539 L28.2796854,23.4808539 L28.2796854,19.5629213 L12,19.5629213 L12,35.6399551 L18.3497528,35.6399551 Z M36.2731685,35.6399551 L36.2731685,30.6862472 L40.7765393,30.6862472 C41.9474157,30.6862472 42.3527191,31.4067865 42.4202697,32.6001798 C42.5328539,34.4690787 42.5328539,35.1671011 42.7580225,35.6399551 L49.6932135,35.6399551 C49.2879101,35.1445843 48.9726742,34.4690787 48.9051236,33.7485393 L48.6349213,30.2359101 C48.5223371,28.8398652 47.756764,28.0292584 46.8110562,27.7590562 L46.8110562,27.7140225 C48.6574382,27.173618 49.2879101,25.5524045 49.2879101,24.0437753 C49.2879101,22.2874607 48.2971685,20.7337978 47.1037753,20.1483596 C46.225618,19.7205393 45.1222921,19.5629213 43.298427,19.5629213 L29.9234157,19.5629213 L29.9234157,35.6399551 L36.2731685,35.6399551 Z M40.7765393,26.6332135 L36.2731685,26.6332135 L36.2731685,23.6159551 L40.6864719,23.6159551 C41.744764,23.6159551 42.5328539,23.9086742 42.5328539,25.1245843 C42.5328539,26.1378427 42.0149663,26.6332135 40.7765393,26.6332135 Z M68.6749213,35.6399551 L68.6749213,31.7220225 L57.934382,31.7220225 L57.934382,29.5604045 L67.9093483,29.5604045 L67.9093483,25.6424719 L57.934382,25.6424719 L57.934382,23.4808539 L68.6749213,23.4808539 L68.6749213,19.5629213 L51.5846292,19.5629213 L51.5846292,35.6399551 L68.6749213,35.6399551 Z M87.8592809,35.6399551 L87.8592809,31.7220225 L77.1187416,31.7220225 L77.1187416,29.5604045 L87.0937079,29.5604045 L87.0937079,25.6424719 L77.1187416,25.6424719 L77.1187416,23.4808539 L87.8592809,23.4808539 L87.8592809,19.5629213 L70.7689888,19.5629213 L70.7689888,35.6399551 L87.8592809,35.6399551 Z M99.1852584,36.2028764 C106.323101,36.2028764 109.520494,34.3564944 109.520494,30.4385618 C109.520494,27.7140225 107.539011,26.2279101 104.341618,25.7550562 L96.7534382,24.6292135 C96.1229663,24.5391461 95.9203146,24.246427 95.9203146,23.7960899 C95.9203146,23.1205843 96.5733034,22.6477303 98.4647191,22.6477303 C99.1627416,22.6477303 99.8832809,22.7377978 100.446202,22.9854831 C101.03164,23.2106517 101.414427,23.6159551 101.414427,24.2689438 L108.799955,24.2689438 C108.574787,20.8688989 105.625079,19 98.4647191,19 C93.240809,19 89.1652584,20.1258427 89.1652584,24.2914607 C89.1652584,26.5431461 90.4487191,28.3444944 93.5560449,28.8173483 L100.806472,29.8981573 C101.662112,30.0332584 101.954831,30.5061124 101.954831,30.9789663 C101.954831,31.7445393 101.414427,32.2849438 99.4329438,32.2849438 C98.4422022,32.2849438 97.7441798,32.1723596 97.2713258,31.947191 C96.8209888,31.6995056 96.6183371,31.339236 96.5958202,30.7988315 L88.9400899,30.7988315 C88.9626067,35.5273708 94.2991011,36.2028764 99.1852584,36.2028764 Z M117.964315,35.6399551 L117.964315,30.6412135 L124.764404,30.6412135 C129.267775,30.6412135 130.888989,28.254427 130.888989,25.169618 C130.888989,21.5894382 129.222742,19.5629213 124.719371,19.5629213 L111.614562,19.5629213 L111.614562,35.6399551 L117.964315,35.6399551 Z M122.062382,26.7232809 L117.964315,26.7232809 L117.964315,23.3457528 L122.062382,23.3457528 C123.661079,23.3457528 124.269034,23.8411236 124.269034,25.0570337 C124.269034,26.2279101 123.661079,26.7232809 122.062382,26.7232809 Z M139.287775,35.6399551 L139.287775,19.5629213 L132.938022,19.5629213 L132.938022,35.6399551 L139.287775,35.6399551 Z M148.542202,35.6399551 L148.542202,26.6332135 L148.587236,26.6332135 L155.342292,35.6399551 L162.3,35.6399551 L162.3,19.5629213 L156.220449,19.5629213 L156.220449,28.4795955 L156.152899,28.4795955 L149.713079,19.5629213 L142.462652,19.5629213 L142.462652,35.6399551 L148.542202,35.6399551 Z" id="FREESPIN" fill="#000000" fill-rule="nonzero"></path>
    </g>
</svg>