<?xml version="1.0" encoding="UTF-8"?>
<svg width="175px" height="56px" viewBox="0 0 175 56" version="1.1" xmlns="http://www.w3.org/2000/svg" xmlns:xlink="http://www.w3.org/1999/xlink">
    <!-- Generator: Sketch 60.1 (88133) - https://sketch.com -->
    <title>dualsport</title>
    <desc>Created with Sketch.</desc>
    <g id="dualsport" stroke="none" stroke-width="1" fill="none" fill-rule="evenodd">
        <path d="M20.2560692,38.53125 C28.2890015,38.53125 32.4967279,34.3125 32.4967279,27.34375 L32.4967279,27.09375 C32.4967279,20.15625 28.3846316,16.1875 20.287946,16.1875 L12,16.1875 L12,38.53125 L20.2560692,38.53125 Z M20.064809,33.59375 L18.5666033,33.59375 L18.5666033,21.125 L20.0010555,21.125 C23.9537682,21.125 25.6751108,22.9375 25.6751108,27.1875 L25.6751108,27.4375 C25.6751108,31.59375 23.9537682,33.59375 20.064809,33.59375 Z M40.657167,38.90625 C43.4304412,38.90625 45.0561537,37.6875 45.9487017,36 L45.9487017,38.53125 L51.6546337,38.53125 L51.6546337,22.1875 L45.9487017,22.1875 L45.9487017,31.59375 C45.9487017,33.6875 44.8330167,34.6875 43.1116741,34.6875 C41.4859616,34.6875 40.7527971,33.78125 40.7527971,31.9375 L40.7527971,22.1875 L35.0468651,22.1875 L35.0468651,32.84375 C35.0468651,36.96875 37.4376187,38.90625 40.657167,38.90625 Z M59.7194427,38.90625 C62.3970868,38.90625 63.8634157,37.8125 64.6603335,36.625 L64.6603335,38.53125 L70.206882,38.53125 L70.206882,27.9375 C70.206882,23.59375 67.2742242,21.75 62.6839772,21.75 C58.1256069,21.75 54.9698121,23.6875 54.7147984,27.625 L60.0700866,27.625 C60.1975934,26.59375 60.7713743,25.6875 62.3333333,25.6875 C64.1503061,25.6875 64.5328267,26.71875 64.5328267,28.28125 L64.5328267,28.65625 L62.9389909,28.65625 C57.3924425,28.65625 54.0772641,30.15625 54.0772641,34 C54.0772641,37.46875 56.7230315,38.90625 59.7194427,38.90625 Z M61.695799,35.125 C60.356977,35.125 59.7194427,34.53125 59.7194427,33.59375 C59.7194427,32.25 60.7394976,31.8125 63.0346211,31.8125 L64.5328267,31.8125 L64.5328267,32.8125 C64.5328267,34.21875 63.3215115,35.125 61.695799,35.125 Z M79.2917458,38.53125 L79.2917458,15 L73.6176905,15 L73.6176905,38.53125 L79.2917458,38.53125 Z M89.3647878,38.90625 C93.9869115,38.90625 96.9195693,37.15625 96.9195693,33.28125 C96.9195693,29.78125 94.6881993,28.59375 90.0660756,28.03125 C88.0259658,27.78125 87.2609246,27.46875 87.2609246,26.6875 C87.2609246,25.9375 87.8984589,25.40625 89.1416508,25.40625 C90.4485962,25.40625 91.0542537,25.9375 91.2773908,27.03125 L96.4414186,27.03125 C96.058898,23.125 93.1899937,21.75 89.0778974,21.75 C85.2208149,21.75 81.9375132,23.5 81.9375132,27.125 C81.9375132,30.53125 83.8182394,31.8125 88.2809795,32.375 C90.576103,32.6875 91.3730209,33.0625 91.3730209,33.84375 C91.3730209,34.65625 90.7354866,35.1875 89.3329111,35.1875 C87.7071986,35.1875 87.1652945,34.53125 86.9740342,33.34375 L81.7143762,33.34375 C81.841883,36.96875 84.6151573,38.90625 89.3647878,38.90625 Z M104.952502,44 L104.952502,36.125 C105.781296,37.75 107.598269,38.90625 110.116529,38.90625 C114.037365,38.90625 117.19316,36.09375 117.19316,30.46875 L117.19316,30.21875 C117.19316,24.625 114.037365,21.75 110.148406,21.75 C107.630146,21.75 105.908803,23.0625 104.952502,24.625 L104.952502,22.1875 L99.2465696,22.1875 L99.2465696,44 L104.952502,44 Z M108.108296,34.625 C106.03631,34.625 104.793118,33.21875 104.793118,30.4375 L104.793118,30.1875 C104.793118,27.4375 106.03631,25.96875 108.108296,25.96875 C110.116529,25.96875 111.391598,27.34375 111.391598,30.21875 L111.391598,30.46875 C111.391598,33.15625 110.244036,34.625 108.108296,34.625 Z M127.96749,38.90625 C133.099641,38.90625 137.084231,35.71875 137.084231,30.40625 L137.084231,30.15625 C137.084231,24.96875 133.131518,21.75 127.999367,21.75 C122.835339,21.75 118.850749,25.0625 118.850749,30.3125 L118.850749,30.5625 C118.850749,35.84375 122.835339,38.90625 127.96749,38.90625 Z M127.999367,34.75 C125.799873,34.75 124.684188,33.21875 124.684188,30.40625 L124.684188,30.15625 C124.684188,27.40625 125.863627,25.9375 127.999367,25.9375 C130.166983,25.9375 131.282668,27.46875 131.282668,30.21875 L131.282668,30.46875 C131.282668,33.1875 130.135107,34.75 127.999367,34.75 Z M145.276546,38.53125 L145.276546,30.78125 C145.276546,28.15625 147.189149,27.09375 150.663711,27.1875 L150.663711,21.96875 C148.081697,21.9375 146.328478,23 145.276546,25.4375 L145.276546,22.1875 L139.570614,22.1875 L139.570614,38.53125 L145.276546,38.53125 Z M159.844205,38.90625 C161.183027,38.90625 162.266836,38.625 163,38.4375 L163,34.1875 C162.489973,34.375 162.011822,34.46875 161.374288,34.46875 C160.290479,34.46875 159.684822,33.9375 159.684822,32.75 L159.684822,26 L162.968123,26 L162.968123,22.1875 L159.684822,22.1875 L159.684822,18.78125 L153.97889,18.78125 L153.97889,22.1875 L151.970657,22.1875 L151.970657,26 L153.97889,26 L153.97889,33.28125 C153.97889,37.125 156.082753,38.90625 159.844205,38.90625 Z" id="Dualsport" fill="#000000" fill-rule="nonzero"></path>
    </g>
</svg>