<svg id="Layer_1" data-name="Layer 1" xmlns="http://www.w3.org/2000/svg" xmlns:xlink="http://www.w3.org/1999/xlink" viewBox="0 0 360 360"><defs><style>.cls-1{fill:#fff;}.cls-1,.cls-3{fill-rule:evenodd;}.cls-2{mask:url(#mask);}</style><mask id="mask" x="35" y="84" width="290" height="192" maskUnits="userSpaceOnUse"><g id="mask-2"><polygon id="path-1" class="cls-1" points="35 84 325 84 325 276 35 276 35 84"/></g></mask></defs><g id="Concepting"><g id="tent"><g class="cls-2"><path id="Fill-1" class="cls-3" d="M247,271.68c.1,0,.1-.2,0-.21s-.1.2,0,.21ZM158.61,103.91c-.1,0-.1.2,0,.21s.1-.21,0-.21Zm-11.65.94c.1,0,.1-.2,0-.21s-.1.21,0,.21Zm85.45.52c-.11,0-.11.2,0,.21a.11.11,0,0,0,0-.21Zm-160.7,161c-.1,0-.11.2,0,.2s.1-.2,0-.2Zm57.64-.4c0-.11-.25,0-.22.07h.23ZM175,265.8l.23,0c0-.11-.18-.17-.22-.06Zm-76.34-.17c-.11,0-.11.2,0,.2s.1-.2,0-.2ZM161,107.77c.11,0,.11-.2,0-.21s-.1.21,0,.21Zm95.51,150.9c0-.1-.2-.11-.21,0s.21.1.21,0ZM72.2,256.61c-.11,0-.11.2,0,.21a.11.11,0,0,0,0-.21ZM215.65,110.45c.11,0,.11-.2,0-.21s-.11.21,0,.21Zm-28.88,3.9c.1,0,.1-.2,0-.21s-.1.2,0,.21Zm107,138.85c-.1,0-.11.2,0,.21s.1-.2,0-.21ZM56.9,244.68c-.1,0-.1.2,0,.21s.1-.21,0-.21Zm14.91-15.24c0-.1-.2-.1-.21,0s.21.1.21,0ZM211.91,121.3c0,.11.2.11.21,0s-.21-.11-.21,0Zm-9.85,3.56c-.1,0-.1.2,0,.2s.1-.2,0-.2ZM78.85,222.14c0-.11-.2-.11-.21,0s.21.11.21,0Zm1.84-1.61c.1,0,.1-.2,0-.2s-.1.2,0,.2Zm144-3.37c-.1,0-.11.2,0,.21s.1-.21,0-.21Zm69.9-27.07c.11,0,.11-.2,0-.21s-.1.21,0,.21ZM137.11,86.48c0-.1-.2-.11-.21,0s.21.1.21,0ZM303.67,187.06c0,.11.2.11.2,0s-.2-.1-.2,0Zm-101-2.69c0-.11-.25-.05-.21.07h.23Zm85.1-5.24c.1,0,.1-.2,0-.21s-.1.21,0,.21Zm-187-1.08c0,.1.2.11.21,0s-.2-.1-.21,0Zm79.14-11c0,.1.2.11.21,0s-.21-.1-.21,0Zm88.58,104.49a.29.29,0,0,0-.48,0,.31.31,0,0,0,.49,0ZM112.43,166a.21.21,0,1,0,.41.11l-.34-.12Zm19.78-18a.21.21,0,1,0-.41-.1l.34.11Zm151.42,26.55.34-.11c0-.24-.49-.13-.41.1Zm6.67,8.37c.21.26.36-.22.12-.37a.33.33,0,0,0-.11.37Zm-84.9,83.39a.21.21,0,1,0,.41.11l-.34-.12Zm51.9-6.66a.31.31,0,0,0,.11.36c.24-.15.09-.63-.13-.36Zm52.36-16.91a.21.21,0,1,0-.41-.1l.34.11Zm-120-125.48a.21.21,0,1,0,.41.11l-.34-.12ZM55,246.82l-.34.11c0,.24.5.13.41-.09Zm159.91,8.53a.22.22,0,1,0,.42.11l-.34-.11Zm-9.71-1a.22.22,0,1,0,.42.1l-.34-.11ZM131.42,148.22a.31.31,0,0,0,0,.49l.37-.38-.35-.16Zm26.7-45.54-.24-.25c-.44.42.42.76.27.2Zm10.56,39.82-.36-.37c-.37.24.12.73.36.36Zm38.85,124.12a.44.44,0,0,0,.72.06.78.78,0,0,0-.6-.09Zm-54.74-153c-.37.24.12.73.36.36l-.37-.37Zm3.77,6.94c-.18,1,.85.68.09-.1ZM219,118.71c-.35,1.07,1.46.35.05,0Zm87.73,99.68c-10.25-36.54-41.82-62.71-59.94-95.8-1.68-3-3.61-6.33-6.92-7.2a12.16,12.16,0,0,0-5.85.42C215.55,120.89,196,125.2,179,134c-1.3,1.81-.49,4.31.39,6.35,19.68,44.75,49.94,84.63,81.35,122,2.64,1.33,5.67-.7,7.89-2.65a348.82,348.82,0,0,0,35-35.29c1.51-1.75,3.08-3.72,3.14-6ZM43.67,240.52c.34.08.12-.72.47-.83,0-.24-.44-.12-.48.12s.08.48,0,.71Zm215.79,21.93c.07-.15-.15-.34-.18-.14a.51.51,0,0,0,.71.29.46.46,0,0,0-.51-.14ZM111.45,240a209.43,209.43,0,0,0,36.86-49.2c1.34-2.47,3.12-5.3,5.91-5.41,10.93.24,6.56,46.35,40.4,64a78.5,78.5,0,0,0,40.23,7.15c2.57-1.65.93-5.62-.91-8.06-24.07-31.83-48.08-64.3-63.55-101.12-1.61-3.85-4.25-8.46-8.39-8.05-2.28.23-4.06,2-5.64,3.68l-34.77,36.89C99,204.14,75.24,227.25,51.27,250.14c-2.81,4.06,2.74,6.64,6.39,6.28,19.69,1.45,40.38-.69,53.79-16.42Zm39.27-51.85c.14.06.26-.23.11-.23a.74.74,0,0,1-.35.35c0,.15.29,0,.23-.11Zm69.2,22.19c-.08.12.19.24.23.1a.78.78,0,0,1-.36-.36c-.14,0,0,.31.1.23ZM162.37,110c0-.14-.23-.26-.24-.11a.74.74,0,0,1,.36.36c.14,0,0-.31-.1-.23Zm72.46-6.08c8.15-3.21,13.61-.76,17,7.31,22.69,39.42,56.48,72.05,72.22,115.71,1.35,2.48,1.46,5.51-1.33,6.91-20.51,13.65-39.86,29.84-61,42.17C86.1,234.46-88.3,346.24,154.36,128c7.72-7.79-13.25-29.42-17.09-38.14-1.79-2.79,2-6.43,5.27-5.79,7.38,2.21,15.42,20,21,26.56,10,8.23,24.29-29.63,36.82-22.33,4.81,2.89,3.17,10.61-.79,14.59s-9.54,6.31-12.72,10.94c.68,3.55,5.78,3.38,9.21,2.29l38.79-12.22Z"/></g></g></g></svg>