<?xml version="1.0" encoding="UTF-8"?>
<svg width="50px" height="50px" viewBox="0 0 50 50" version="1.1" xmlns="http://www.w3.org/2000/svg" xmlns:xlink="http://www.w3.org/1999/xlink">
    <!-- Generator: Sketch 60.1 (88133) - https://sketch.com -->
    <title>Group 3</title>
    <desc>Created with Sketch.</desc>
    <defs>
        <polygon id="path-1" points="0 1.953125e-05 49.9974609 1.953125e-05 49.9974609 49.9981445 0 49.9981445"></polygon>
    </defs>
    <g id="Concepting" stroke="none" stroke-width="1" fill="none" fill-rule="evenodd">
        <g id="Group-3">
            <mask id="mask-2" fill="white">
                <use xlink:href="#path-1"></use>
            </mask>
            <g id="Clip-2"></g>
            <path d="M5.66689453,20.0035352 C5.66689453,12.0875195 12.084375,5.67296875 19.9987305,5.67296875 C27.9146484,5.67296875 34.3320312,12.0875195 34.3320312,20.0035352 C34.3320312,27.9196484 27.9145508,34.3371289 19.9987305,34.3371289 C12.084375,34.3371289 5.66689453,27.9196484 5.66689453,20.0035352 L5.66689453,20.0035352 Z M49.9974609,44.3434766 L36.6833008,31.0292187 C38.7782227,27.8647656 39.9973633,24.0774609 39.9973633,20.0005078 C39.9973633,8.95353516 31.0439453,1.953125e-05 19.9987305,1.953125e-05 C8.95332031,1.953125e-05 0,8.95353516 0,20.0005078 C0,31.0444531 8.95341797,40.0009961 19.9987305,40.0009961 C24.0740234,40.0009961 27.8658203,38.7774609 31.0272461,36.6839062 L44.3413086,49.9981641 L49.9974609,44.3434766 Z" id="Fill-1" fill="#000000" mask="url(#mask-2)"></path>
        </g>
    </g>
</svg>